<svg enable-background="new 0 0 24 24" height="512" viewBox="0 0 24 24" width="512" xmlns="http://www.w3.org/2000/svg">




<path d="m16.57 18h-1.03c-4.448 0-6.421-1.506-6.502-1.57l-.256-.204c-.323-.258-.376-.73-.118-1.054.258-.323.73-.376 1.054-.118l.25.2c.005.004 1.698 1.246 5.572 1.246h1.03c.607 0 1.125-.434 1.232-1.032l.7-3.978c.066-.366-.033-.737-.271-1.021-.238-.285-.588-.449-.961-.449h-3.42c-.276 0-.529-.151-.66-.395-.131-.243-.118-.538.034-.768 0-.001.437-.705.437-1.848 0-1.141-.445-1.51-.66-1.51-.005 0-.009 0-.012-.001-.035.104-.089.362-.089.952 0 2.391-2.921 3.984-3.046 4.051l-.257.134c-.365.192-.82.05-1.012-.318-.191-.367-.049-.82.318-1.012l.25-.13c.619-.335 2.247-1.486 2.247-2.725 0-.795 0-2.45 1.6-2.45 1.041 0 2.16.942 2.16 3.01 0 .593-.085 1.101-.196 1.51h2.306c.818 0 1.588.36 2.112.987.523.626.741 1.445.597 2.246l-.7 3.977c-.236 1.316-1.375 2.27-2.709 2.27z"/></svg>