<?xml version="1.0" standalone="no"?>
<!DOCTYPE svg PUBLIC "-//W3C//DTD SVG 20010904//EN"
 "http://www.w3.org/TR/2001/REC-SVG-20010904/DTD/svg10.dtd">
<svg version="1.0" xmlns="http://www.w3.org/2000/svg"
 width="48.000000pt" height="48.000000pt" viewBox="0 0 48.000000 48.000000"
 preserveAspectRatio="xMidYMid meet">

<g transform="translate(0.000000,48.000000) scale(0.100000,-0.100000)"
fill="#A9A9A9" stroke="none">
<path d="M247 443 c-2 -5 -10 -26 -17 -48 -7 -22 -23 -55 -34 -72 -19 -29 -26
-33 -66 -33 -26 0 -51 -5 -58 -12 -8 -8 -12 -48 -12 -115 0 -121 3 -124 102
-121 35 2 86 -1 114 -6 45 -7 53 -6 78 16 26 22 66 132 66 180 0 28 -37 58
-70 58 l-31 0 7 49 c6 48 -5 87 -30 103 -14 10 -44 10 -49 1z m49 -88 c-3 -22
-8 -52 -12 -67 -6 -27 -5 -28 39 -28 67 0 74 -14 51 -102 -24 -93 -43 -106
-127 -88 l-57 11 0 90 c0 84 2 94 29 133 17 24 33 56 37 72 10 42 14 46 31 32
11 -9 14 -23 9 -53z m-136 -190 l0 -95 -35 0 -35 0 0 95 0 95 35 0 35 0 0 -95z"/>
</g>
</svg>
